<?xml version="1.0" encoding="UTF-8"?>
<svg width="20" height="20" viewBox="0 0 24 24" fill="none" xmlns="http://www.w3.org/2000/svg">
    <path d="M12 2C6.477 2 2 6.477 2 12C2 16.419 4.865 20.167 8.839 21.501C9.339 21.593 9.5 21.275 9.5 21.001V19.347C6.708 19.959 6.135 18.015 6.135 18.015C5.689 16.92 5.064 16.603 5.064 16.603C4.203 16.027 5.134 16.039 5.134 16.039C6.09 16.112 6.607 17.039 6.607 17.039C7.467 18.466 8.936 18.063 9.54 17.789C9.632 17.158 9.894 16.756 10.183 16.519C7.958 16.282 5.619 15.471 5.619 11.661C5.619 10.611 6.01 9.749 6.627 9.071C6.523 8.809 6.175 7.806 6.727 6.611C6.727 6.611 7.534 6.337 9.499 7.616C10.295 7.391 11.15 7.279 12.005 7.275C12.86 7.279 13.715 7.391 14.511 7.616C16.476 6.337 17.283 6.611 17.283 6.611C17.835 7.806 17.487 8.809 17.383 9.071C18 9.749 18.391 10.611 18.391 11.661C18.391 15.481 16.052 16.282 13.827 16.519C14.156 16.799 14.467 17.359 14.467 18.207V21.001C14.467 21.275 14.628 21.593 15.128 21.501C19.102 20.167 21.967 16.419 21.967 12C21.967 6.477 17.523 2 12 2Z" fill="currentColor"/>
</svg>